<svg xmlns="http://www.w3.org/2000/svg" width="375" viewBox="0 0 375 375" height="375" version="1.0"><defs><clipPath id="a"><path d="M 26.4375 116.015625 L 164.4375 116.015625 L 164.4375 259.265625 L 26.4375 259.265625 Z M 26.4375 116.015625"/></clipPath></defs><g clip-path="url(#a)"><path fill="#3C6AAF" d="M 164.398438 184.054688 L 164.398438 168.421875 L 95.4375 116.023438 L 26.480469 168.421875 L 26.480469 259.257812 L 164.398438 259.257812 L 164.398438 198.042969 L 68.074219 197.925781 L 68.074219 221.558594 L 139.242188 221.558594 L 139.242188 234.984375 L 53.238281 234.984375 L 53.238281 184.054688 Z M 97.25 145.667969 L 106.957031 145.667969 L 106.957031 155.402344 L 97.25 155.402344 Z M 97.25 159.039062 L 106.957031 159.039062 L 106.957031 168.769531 L 97.25 168.769531 Z M 83.921875 145.667969 L 93.625 145.667969 L 93.625 155.402344 L 83.921875 155.402344 Z M 83.921875 159.039062 L 93.625 159.039062 L 93.625 168.769531 L 83.921875 168.769531 Z M 83.921875 159.039062"/></g><g fill="#3C6AAF"><g><g><path d="M 6.375 0 L 6.375 -75.4375 L 27.625 -75.4375 L 27.625 -47.0625 L 54.609375 -47.0625 L 54.609375 -75.4375 L 75.859375 -75.4375 L 75.859375 0 L 54.609375 0 L 54.609375 -28.6875 L 27.625 -28.6875 L 27.625 0 Z M 6.375 0" transform="translate(183.002 236.053)"/></g></g></g><g fill="#3C6AAF"><g><g><path d="M 27.203125 0 L 6.375 0 L 6.375 -75.4375 L 34.953125 -75.4375 C 46.640625 -75.4375 55.265625 -73.328125 60.828125 -69.109375 C 66.390625 -64.898438 69.171875 -58.757812 69.171875 -50.6875 C 69.171875 -45.300781 67.71875 -40.660156 64.8125 -36.765625 C 61.90625 -32.867188 57.796875 -29.875 52.484375 -27.78125 C 47.171875 -25.695312 40.832031 -24.65625 33.46875 -24.65625 L 27.203125 -24.65625 Z M 35.59375 -58.328125 L 27.203125 -58.328125 L 27.203125 -41.859375 L 34.53125 -41.859375 C 38.925781 -41.859375 42.273438 -42.53125 44.578125 -43.875 C 46.878906 -45.226562 48.03125 -47.425781 48.03125 -50.46875 C 48.03125 -53.15625 47.035156 -55.132812 45.046875 -56.40625 C 43.066406 -57.6875 39.914062 -58.328125 35.59375 -58.328125 Z M 35.59375 -58.328125" transform="translate(277.034 236.053)"/></g></g></g><g fill="#3C6AAF"><g><g><path d="M 3.140625 -7.039062 C 1.871094 -7.039062 0.839844 -6.289062 0.839844 -5.097656 C 0.839844 -3.960938 1.691406 -3.46875 2.910156 -3.1875 C 4.117188 -2.910156 4.597656 -2.53125 4.597656 -1.691406 C 4.597656 -0.96875 3.960938 -0.539062 3.167969 -0.539062 C 2.269531 -0.539062 1.640625 -1.050781 1.441406 -1.960938 L 0.519531 -1.960938 C 0.667969 -0.628906 1.628906 0.140625 3.148438 0.140625 C 4.480469 0.140625 5.519531 -0.640625 5.519531 -1.847656 C 5.519531 -3.019531 4.757812 -3.640625 3.238281 -3.988281 C 2.1875 -4.230469 1.757812 -4.550781 1.757812 -5.296875 C 1.757812 -6.019531 2.339844 -6.359375 3.070312 -6.359375 C 3.9375 -6.359375 4.449219 -5.859375 4.527344 -4.988281 L 5.449219 -4.988281 C 5.320312 -6.167969 4.570312 -7.039062 3.140625 -7.039062 Z M 3.140625 -7.039062" transform="translate(190.5 256.985)"/></g></g></g><g fill="#3C6AAF"><g><g><path d="M 5.589844 -0.699219 L 1.859375 -0.699219 L 1.859375 -3.097656 L 5.1875 -3.097656 L 5.1875 -3.800781 L 1.859375 -3.800781 L 1.859375 -6.199219 L 5.488281 -6.199219 L 5.488281 -6.898438 L 1 -6.898438 L 1 0 L 5.589844 0 Z M 5.589844 -0.699219" transform="translate(198.988 256.985)"/></g></g></g><g fill="#3C6AAF"><g><g><path d="M 5.539062 -1.808594 C 5.480469 -2.5 5.207031 -3.128906 4.648438 -3.390625 C 5.289062 -3.589844 5.878906 -4.109375 5.878906 -5.019531 C 5.878906 -6.179688 5.160156 -6.726562 4.160156 -6.859375 C 3.847656 -6.898438 3.609375 -6.898438 3.257812 -6.898438 L 1 -6.898438 L 1 0 L 1.859375 0 L 1.859375 -2.96875 L 3.160156 -2.96875 C 3.320312 -2.96875 3.488281 -2.96875 3.648438 -2.960938 C 4.328125 -2.910156 4.597656 -2.4375 4.679688 -1.730469 C 4.769531 -0.878906 4.859375 -0.441406 5.046875 0 L 6 0 C 5.71875 -0.371094 5.617188 -0.910156 5.539062 -1.808594 Z M 1.859375 -3.667969 L 1.859375 -6.199219 L 3.257812 -6.199219 C 3.570312 -6.199219 3.757812 -6.1875 3.949219 -6.160156 C 4.589844 -6.058594 4.957031 -5.707031 4.957031 -4.9375 C 4.957031 -4.160156 4.488281 -3.75 3.847656 -3.6875 C 3.660156 -3.667969 3.488281 -3.667969 3.179688 -3.667969 Z M 1.859375 -3.667969" transform="translate(207.496 256.985)"/></g></g></g><g fill="#3C6AAF"><g><g><path d="M 3.859375 0 L 6.339844 -6.898438 L 5.417969 -6.898438 L 3.300781 -0.648438 L 1.25 -6.898438 L 0.320312 -6.898438 L 2.699219 0 Z M 3.859375 0" transform="translate(216.323 256.985)"/></g></g></g><g fill="#3C6AAF"><g><g><path d="M 1.859375 0 L 1.859375 -6.898438 L 1 -6.898438 L 1 0 Z M 1.859375 0" transform="translate(225.181 256.985)"/></g></g></g><g fill="#3C6AAF"><g><g><path d="M 3.730469 -7.039062 C 1.769531 -7.039062 0.46875 -5.519531 0.46875 -3.417969 C 0.46875 -1.398438 1.589844 0.140625 3.597656 0.140625 C 5.417969 0.140625 6.347656 -0.949219 6.476562 -2.199219 L 6.488281 -2.300781 L 5.628906 -2.300781 L 5.609375 -2.199219 C 5.410156 -1.210938 4.796875 -0.539062 3.648438 -0.539062 C 2.289062 -0.539062 1.429688 -1.757812 1.429688 -3.460938 C 1.429688 -5.128906 2.300781 -6.359375 3.710938 -6.359375 C 4.859375 -6.359375 5.46875 -5.6875 5.667969 -4.699219 L 5.6875 -4.597656 L 6.546875 -4.597656 L 6.539062 -4.699219 C 6.398438 -6.046875 5.480469 -7.039062 3.730469 -7.039062 Z M 3.730469 -7.039062" transform="translate(230.46 256.985)"/></g></g></g><g fill="#3C6AAF"><g><g><path d="M 1.859375 0 L 1.859375 -6.898438 L 1 -6.898438 L 1 0 Z M 1.859375 0" transform="translate(240.087 256.985)"/></g></g></g><g fill="#3C6AAF"><g><g><path d="M 3.730469 -7.039062 C 1.628906 -7.039062 0.46875 -5.558594 0.46875 -3.449219 C 0.46875 -1.351562 1.628906 0.140625 3.730469 0.140625 C 5.828125 0.140625 6.988281 -1.351562 6.988281 -3.449219 C 6.988281 -5.558594 5.828125 -7.039062 3.730469 -7.039062 Z M 3.730469 -0.539062 C 2.28125 -0.539062 1.429688 -1.660156 1.429688 -3.449219 C 1.429688 -5.25 2.28125 -6.359375 3.730469 -6.359375 C 5.179688 -6.359375 6.027344 -5.25 6.027344 -3.449219 C 6.027344 -1.660156 5.179688 -0.539062 3.730469 -0.539062 Z M 3.730469 -0.539062" transform="translate(245.366 256.985)"/></g></g></g><g fill="#3C6AAF"><g><g><path d="M 3.140625 -7.039062 C 1.871094 -7.039062 0.839844 -6.289062 0.839844 -5.097656 C 0.839844 -3.960938 1.691406 -3.46875 2.910156 -3.1875 C 4.117188 -2.910156 4.597656 -2.53125 4.597656 -1.691406 C 4.597656 -0.96875 3.960938 -0.539062 3.167969 -0.539062 C 2.269531 -0.539062 1.640625 -1.050781 1.441406 -1.960938 L 0.519531 -1.960938 C 0.667969 -0.628906 1.628906 0.140625 3.148438 0.140625 C 4.480469 0.140625 5.519531 -0.640625 5.519531 -1.847656 C 5.519531 -3.019531 4.757812 -3.640625 3.238281 -3.988281 C 2.1875 -4.230469 1.757812 -4.550781 1.757812 -5.296875 C 1.757812 -6.019531 2.339844 -6.359375 3.070312 -6.359375 C 3.9375 -6.359375 4.449219 -5.859375 4.527344 -4.988281 L 5.449219 -4.988281 C 5.320312 -6.167969 4.570312 -7.039062 3.140625 -7.039062 Z M 3.140625 -7.039062" transform="translate(255.373 256.985)"/></g></g></g><g fill="#3C6AAF"><g><g><path d="M 1.859375 0 L 1.859375 -6.898438 L 1 -6.898438 L 1 0 Z M 1.859375 0" transform="translate(268.66 256.985)"/></g></g></g><g fill="#3C6AAF"><g><g><path d="M 6.398438 0 L 6.378906 -6.898438 L 5.539062 -6.898438 L 5.539062 -3.449219 C 5.539062 -2.640625 5.546875 -1.648438 5.570312 -0.839844 L 2.320312 -6.898438 L 1 -6.898438 L 1 0 L 1.859375 0 L 1.859375 -3.449219 C 1.859375 -4.257812 1.847656 -5.25 1.828125 -6.058594 L 5.078125 0 Z M 6.398438 0" transform="translate(273.939 256.985)"/></g></g></g><g fill="#3C6AAF"><g><g><path d="M 6.117188 -6.199219 L 6.117188 -6.898438 L 0.339844 -6.898438 L 0.339844 -6.199219 L 2.800781 -6.199219 L 2.800781 0 L 3.660156 0 L 3.660156 -6.199219 Z M 6.117188 -6.199219" transform="translate(283.756 256.985)"/></g></g></g><g fill="#3C6AAF"><g><g><path d="M 5.589844 -0.699219 L 1.859375 -0.699219 L 1.859375 -3.097656 L 5.1875 -3.097656 L 5.1875 -3.800781 L 1.859375 -3.800781 L 1.859375 -6.199219 L 5.488281 -6.199219 L 5.488281 -6.898438 L 1 -6.898438 L 1 0 L 5.589844 0 Z M 5.589844 -0.699219" transform="translate(292.514 256.985)"/></g></g></g><g fill="#3C6AAF"><g><g><path d="M 3.988281 -3.328125 L 3.988281 -2.628906 L 5.597656 -2.628906 C 5.597656 -1.398438 4.769531 -0.539062 3.648438 -0.539062 C 2.289062 -0.539062 1.429688 -1.757812 1.429688 -3.460938 C 1.429688 -5.128906 2.300781 -6.359375 3.710938 -6.359375 C 4.859375 -6.359375 5.46875 -5.6875 5.667969 -4.699219 L 5.6875 -4.597656 L 6.546875 -4.597656 L 6.539062 -4.699219 C 6.398438 -6.046875 5.480469 -7.039062 3.730469 -7.039062 C 1.769531 -7.039062 0.46875 -5.519531 0.46875 -3.417969 C 0.46875 -1.398438 1.589844 0.140625 3.597656 0.140625 C 4.390625 0.140625 5 -0.121094 5.386719 -0.558594 L 5.699219 -1.199219 L 5.699219 0 L 6.457031 0 L 6.457031 -3.328125 Z M 3.988281 -3.328125" transform="translate(301.021 256.985)"/></g></g></g><g fill="#3C6AAF"><g><g><path d="M 5.539062 -1.808594 C 5.480469 -2.5 5.207031 -3.128906 4.648438 -3.390625 C 5.289062 -3.589844 5.878906 -4.109375 5.878906 -5.019531 C 5.878906 -6.179688 5.160156 -6.726562 4.160156 -6.859375 C 3.847656 -6.898438 3.609375 -6.898438 3.257812 -6.898438 L 1 -6.898438 L 1 0 L 1.859375 0 L 1.859375 -2.96875 L 3.160156 -2.96875 C 3.320312 -2.96875 3.488281 -2.96875 3.648438 -2.960938 C 4.328125 -2.910156 4.597656 -2.4375 4.679688 -1.730469 C 4.769531 -0.878906 4.859375 -0.441406 5.046875 0 L 6 0 C 5.71875 -0.371094 5.617188 -0.910156 5.539062 -1.808594 Z M 1.859375 -3.667969 L 1.859375 -6.199219 L 3.257812 -6.199219 C 3.570312 -6.199219 3.757812 -6.1875 3.949219 -6.160156 C 4.589844 -6.058594 4.957031 -5.707031 4.957031 -4.9375 C 4.957031 -4.160156 4.488281 -3.75 3.847656 -3.6875 C 3.660156 -3.667969 3.488281 -3.667969 3.179688 -3.667969 Z M 1.859375 -3.667969" transform="translate(310.759 256.985)"/></g></g></g><g fill="#3C6AAF"><g><g><path d="M 4.558594 -2.4375 L 5.378906 0 L 6.308594 0 L 3.929688 -6.898438 L 2.769531 -6.898438 L 0.289062 0 L 1.210938 0 L 2.019531 -2.4375 Z M 2.257812 -3.140625 L 3.328125 -6.21875 L 4.328125 -3.140625 Z M 2.257812 -3.140625" transform="translate(319.586 256.985)"/></g></g></g><g fill="#3C6AAF"><g><g><path d="M 5.589844 -0.699219 L 1.859375 -0.699219 L 1.859375 -6.898438 L 1 -6.898438 L 1 0 L 5.589844 0 Z M 5.589844 -0.699219" transform="translate(328.614 256.985)"/></g></g></g><g fill="#3C6AAF"><g><g><path d="M 5.589844 -0.699219 L 1.859375 -0.699219 L 1.859375 -3.097656 L 5.1875 -3.097656 L 5.1875 -3.800781 L 1.859375 -3.800781 L 1.859375 -6.199219 L 5.488281 -6.199219 L 5.488281 -6.898438 L 1 -6.898438 L 1 0 L 5.589844 0 Z M 5.589844 -0.699219" transform="translate(337.001 256.985)"/></g></g></g><g fill="#3C6AAF"><g><g><path d="M 3.140625 -7.039062 C 1.871094 -7.039062 0.839844 -6.289062 0.839844 -5.097656 C 0.839844 -3.960938 1.691406 -3.46875 2.910156 -3.1875 C 4.117188 -2.910156 4.597656 -2.53125 4.597656 -1.691406 C 4.597656 -0.96875 3.960938 -0.539062 3.167969 -0.539062 C 2.269531 -0.539062 1.640625 -1.050781 1.441406 -1.960938 L 0.519531 -1.960938 C 0.667969 -0.628906 1.628906 0.140625 3.148438 0.140625 C 4.480469 0.140625 5.519531 -0.640625 5.519531 -1.847656 C 5.519531 -3.019531 4.757812 -3.640625 3.238281 -3.988281 C 2.1875 -4.230469 1.757812 -4.550781 1.757812 -5.296875 C 1.757812 -6.019531 2.339844 -6.359375 3.070312 -6.359375 C 3.9375 -6.359375 4.449219 -5.859375 4.527344 -4.988281 L 5.449219 -4.988281 C 5.320312 -6.167969 4.570312 -7.039062 3.140625 -7.039062 Z M 3.140625 -7.039062" transform="translate(345.51 256.985)"/></g></g></g></svg>